<svg xmlns="http://www.w3.org/2000/svg" viewBox="0 0 700 563.8"><linearGradient id="a" gradientUnits="userSpaceOnUse" x1="-52.5" y1="632.647" x2="645.5" y2="632.647" gradientTransform="matrix(1 0 0 -1 54.5 1080.75)"><stop offset="0" stop-color="#edeef1"/><stop offset="1" stop-color="#dadde1"/></linearGradient><path d="M2 462.2c0 10 8.1 18.1 18.1 18.1h661.8c10 0 18.1-8.1 18.1-18.1v-46.4H2v46.4z" fill="url(#a)"/><linearGradient id="b" gradientUnits="userSpaceOnUse" x1="-52.5" y1="870.955" x2="645.343" y2="870.955" gradientTransform="matrix(1 0 0 -1 54.5 1080.75)"><stop offset=".014" stop-color="#eeeff2"/><stop offset=".22" stop-color="#eeeff2"/><stop offset=".83" stop-color="#d4d8dc"/></linearGradient><path d="M681.9 2H20.1C10.1 2 2 10.1 2 20.1v397.5h697.8V20c.2-9.9-7.9-18-17.9-18z" fill="url(#b)"/><linearGradient id="c" gradientUnits="userSpaceOnUse" x1="190.147" y1="525.213" x2="296.497" y2="525.213" gradientTransform="matrix(1 0 0 -1 54.5 1080.75)"><stop offset=".014" stop-color="#e6e7eb"/><stop offset=".045" stop-color="#d7dadf"/><stop offset=".112" stop-color="#c0c5cc"/><stop offset=".173" stop-color="#b3b9c1"/><stop offset=".22" stop-color="#aeb5be"/><stop offset=".83" stop-color="#8e98a3"/></linearGradient><path d="M258.2 555.4s-13.7-.3-13.7-1.6v1.9c0 1.6 13.7 1.6 13.7 1.6H351v-1.9h-92.8z" fill="url(#c)"/><linearGradient id="d" gradientUnits="userSpaceOnUse" x1="1120.737" y1="525.213" x2="1227.085" y2="525.213" gradientTransform="rotate(180 789.041 540.375)"><stop offset=".014" stop-color="#e6e7eb"/><stop offset=".045" stop-color="#d7dadf"/><stop offset=".112" stop-color="#c0c5cc"/><stop offset=".173" stop-color="#b3b9c1"/><stop offset=".22" stop-color="#aeb5be"/><stop offset=".83" stop-color="#8e98a3"/></linearGradient><path d="M443.8 555.4s13.7-.3 13.7-1.6v1.9c0 1.6-13.7 1.6-13.7 1.6H351v-1.9h92.8z" fill="url(#d)"/><linearGradient id="e" gradientUnits="userSpaceOnUse" x1="243.283" y1="525.305" x2="243.283" y2="600.477" gradientTransform="matrix(1 0 0 -1 54.5 1080.75)"><stop offset=".004" stop-color="#e6e7eb"/><stop offset=".034" stop-color="#e6e7eb"/><stop offset=".214" stop-color="#e6e7eb"/><stop offset=".252" stop-color="#d5d7dd"/><stop offset=".359" stop-color="#adb3bb"/><stop offset=".443" stop-color="#969fa9"/><stop offset=".491" stop-color="#8e98a3"/><stop offset=".83" stop-color="#aeb5be"/></linearGradient><path d="M277.6 480.4s-6.2 48.8-6.5 50.7c-1 6.5-26.1 22.4-26.1 22.4s-4.1 2.1 13.2 2.1H351v-75.2h-73.4z" fill="url(#e)"/><linearGradient id="f" gradientUnits="userSpaceOnUse" x1="1174.842" y1="525.305" x2="1174.842" y2="600.477" gradientTransform="rotate(180 789.041 540.375)"><stop offset=".004" stop-color="#e6e7eb"/><stop offset=".034" stop-color="#e6e7eb"/><stop offset=".214" stop-color="#e6e7eb"/><stop offset=".252" stop-color="#d5d7dd"/><stop offset=".359" stop-color="#adb3bb"/><stop offset=".443" stop-color="#969fa9"/><stop offset=".491" stop-color="#8e98a3"/><stop offset=".83" stop-color="#aeb5be"/></linearGradient><path d="M423.4 480.4s6.2 48.8 6.5 50.7c1 6.5 26.1 22.4 26.1 22.4s4.1 2.1-13.2 2.1H350v-75.2h73.4z" fill="url(#f)"/><g><path d="M352.3 432.5c2.1-2.7 4.9-2.7 4.9-2.7s.5 2.5-1.6 5.1c-2.2 2.7-4.8 2.2-4.8 2.2s-.3-2.2 1.5-4.6zm-1.1 6.2c1.1 0 3-1.4 5.7-1.4 4.4 0 6.2 3.2 6.2 3.2s-3.5 1.7-3.5 6c0 4.8 4.3 6.5 4.3 6.5s-3 8.4-7 8.4c-1.9 0-3.3-1.3-5.2-1.3-2.1 0-4 1.3-5.2 1.3-3.7 0-8.3-7.9-8.3-14.3s4-9.5 7.6-9.5c2.3-.1 4.2 1.1 5.4 1.1z" fill="#a8abb6"/></g><path d="M25.8 25.8H676v367.9H25.8V25.8z" fill="#c4ccd6"/></svg>