<svg width="1600" height="223" viewBox="0 0 1600 223" xmlns="http://www.w3.org/2000/svg"><title>bg lines</title><defs><linearGradient x1="0%" y1="0%" x2="102%" y2="101%" id="a"><stop stop-color="#3023AE" offset="0%"/><stop stop-color="#C96DD8" offset="100%"/></linearGradient></defs><g transform="translate(0 -5810)" stroke="url(#a)" fill="none" fill-rule="evenodd" opacity=".24"><path d="M-37 6027c223.992 46 333.054-215 567-215 233.946 0 449.016 140 693.008 144C1467 5960 1510 5812 1638 5818"/><path d="M1645 6027c-240 18-386.054-216-620-216-233.946 0-406.016 188.072-650.008 184.072C137.37 5991.177 75.782 5848.277-63 5829"/><path d="M1655.008 5937c-29 0-139.996-111-290-111S958.992 6014.072 715 6010.072c-237.622-3.895-262.996-143.076-408.996-143.076s-173.012 119.996-345.004 117"/><path d="M-122 5985c77-1.004 144.992-106 277-106s449.016 140 693.008 144c243.992 4 259-150 394.992-192"/></g></svg>