<svg xmlns="http://www.w3.org/2000/svg" style="isolation:isolate" viewBox="628 228 80 80.317" width="80" height="80.317"><path d="M629.39 264.643l35.253-35.253a4.75 4.75 0 0 1 6.714 0l35.253 35.253a4.75 4.75 0 0 1 0 6.714l-35.253 35.253a4.75 4.75 0 0 1-6.714 0l-35.253-35.253a4.75 4.75 0 0 1 0-6.714z" fill="#357bfd"/><defs><filter id="a" x="-200%" y="-200%" width="400%" height="400%"><feOffset xmlns="http://www.w3.org/2000/svg" in="SourceAlpha" result="offOut" dy="1"/><feGaussianBlur xmlns="http://www.w3.org/2000/svg" in="offOut" result="blurOut" stdDeviation="5"/><feComponentTransfer xmlns="http://www.w3.org/2000/svg" in="blurOut" result="opacOut"><feFuncA xmlns="http://www.w3.org/2000/svg" type="table" tableValues="0 0.5"/></feComponentTransfer><feBlend xmlns="http://www.w3.org/2000/svg" in="SourceGraphic" in2="opacOut"/></filter></defs><path d="M639.702 265.539l25.837-25.837a3.483 3.483 0 0 1 4.922 0l25.837 25.837a3.483 3.483 0 0 1 0 4.922l-25.837 25.837a3.483 3.483 0 0 1-4.922 0l-25.837-25.837a3.483 3.483 0 0 1 0-4.922z" fill="#4483f9" filter="url(#a)"/><defs><filter id="b" x="-200%" y="-200%" width="400%" height="400%"><feOffset xmlns="http://www.w3.org/2000/svg" in="SourceAlpha" result="offOut" dy="1"/><feGaussianBlur xmlns="http://www.w3.org/2000/svg" in="offOut" result="blurOut" stdDeviation="4"/><feComponentTransfer xmlns="http://www.w3.org/2000/svg" in="blurOut" result="opacOut"><feFuncA xmlns="http://www.w3.org/2000/svg" type="table" tableValues="0 0.5"/></feComponentTransfer><feBlend xmlns="http://www.w3.org/2000/svg" in="SourceGraphic" in2="opacOut"/></filter></defs><path d="M650.014 266.436l16.422-16.422a2.213 2.213 0 0 1 3.128 0l16.422 16.422a2.213 2.213 0 0 1 0 3.128l-16.422 16.422a2.213 2.213 0 0 1-3.128 0l-16.422-16.422a2.213 2.213 0 0 1 0-3.128z" fill="#5289f0" filter="url(#b)"/><defs><filter id="c" x="-200%" y="-200%" width="400%" height="400%"><feOffset xmlns="http://www.w3.org/2000/svg" in="SourceAlpha" result="offOut" dy="1"/><feGaussianBlur xmlns="http://www.w3.org/2000/svg" in="offOut" result="blurOut" stdDeviation="4"/><feComponentTransfer xmlns="http://www.w3.org/2000/svg" in="blurOut" result="opacOut"><feFuncA xmlns="http://www.w3.org/2000/svg" type="table" tableValues="0 0.5"/></feComponentTransfer><feBlend xmlns="http://www.w3.org/2000/svg" in="SourceGraphic" in2="opacOut"/></filter></defs><path d="M660.326 267.333l7.007-7.007a.944.944 0 0 1 1.334 0l7.007 7.007a.944.944 0 0 1 0 1.334l-7.007 7.007a.944.944 0 0 1-1.334 0l-7.007-7.007a.944.944 0 0 1 0-1.334z" fill="#5e8fe6" filter="url(#c)"/></svg>